<?xml version="1.0" encoding="UTF-8"?>
<svg width="80px" height="80px" viewBox="0 0 80 80" version="1.1" xmlns="http://www.w3.org/2000/svg" xmlns:xlink="http://www.w3.org/1999/xlink">
    <title>graphic</title>
    <defs>
        <polygon id="path-1" points="0 -7.10542736e-15 25.8695 -7.10542736e-15 25.8695 22.017 0 22.017"></polygon>
    </defs>
    <g id="LDSM_PC" stroke="none" stroke-width="1" fill="none" fill-rule="evenodd">
        <g id="1_LDSM_main_pc" transform="translate(-1166.000000, -1782.000000)">
            <g id="main/resources" transform="translate(1098.000000, 1726.000000)">
                <g id="graphic" transform="translate(68.000000, 56.000000)">
                    <rect id="Rectangle" x="0" y="0" width="80" height="80"></rect>
                    <polygon id="Fill-1" fill="#1DCC64" points="53.3719 15 42.5829 21.23 42.5829 33.688 53.3719 39.916 64.1609 33.688 64.1609 21.23"></polygon>
                    <g id="Group-11" transform="translate(13.000000, 15.497900)">
                        <path d="M23.92,39.419 C23.92,46.024 18.565,51.379 11.96,51.379 C5.355,51.379 0,46.024 0,39.419 C0,32.814 5.355,27.459 11.96,27.459 C18.565,27.459 23.92,32.814 23.92,39.419" id="Fill-2" fill="#000000"></path>
                        <path d="M16.3058,39.419 C16.3058,41.819 14.3608,43.766 11.9598,43.766 C9.5598,43.766 7.6138,41.819 7.6138,39.419 C7.6138,37.019 9.5598,35.072 11.9598,35.072 C14.3608,35.072 16.3058,37.019 16.3058,39.419" id="Fill-4" fill="#FFFFFF"></path>
                        <path d="M23.92,11.96 C23.92,18.565 18.565,23.92 11.96,23.92 C5.355,23.92 0,18.565 0,11.96 C0,5.356 5.355,0 11.96,0 C18.565,0 23.92,5.356 23.92,11.96" id="Fill-6" fill="#1DCC64" opacity="0.6"></path>
                        <g id="Group-10" transform="translate(27.437200, 27.272500)">
                            <mask id="mask-2" fill="white">
                                <use xlink:href="#path-1"></use>
                            </mask>
                            <g id="Clip-9"></g>
                            <polygon id="Fill-8" fill="#000000" mask="url(#mask-2)" points="12.935 -7.10542736e-15 0 22.017 25.87 22.017"></polygon>
                        </g>
                    </g>
                </g>
            </g>
        </g>
    </g>
</svg>