<?xml version="1.0" encoding="UTF-8"?>
<svg width="80px" height="80px" viewBox="0 0 80 80" version="1.1" xmlns="http://www.w3.org/2000/svg" xmlns:xlink="http://www.w3.org/1999/xlink">
    <title>rainbow color</title>
    <defs>
        <polygon id="path-1" points="0 0 28.4994028 0 28.4994028 35.4131175 0 35.4131175"></polygon>
        <polygon id="path-3" points="0 0 28.5004977 0 28.5004977 35.413018 0 35.413018"></polygon>
    </defs>
    <g id="LDSM_PC" stroke="none" stroke-width="1" fill="none" fill-rule="evenodd">
        <g id="1_LDSM_main_pc" transform="translate(-674.000000, -1782.000000)">
            <g id="main/resources" transform="translate(606.000000, 1726.000000)">
                <g id="rainbow-color" transform="translate(68.000000, 56.000000)">
                    <rect id="Rectangle" x="0" y="0" width="80" height="80"></rect>
                    <g id="Group" transform="translate(11.500000, 22.000000)">
                        <g id="Group-3">
                            <mask id="mask-2" fill="white">
                                <use xlink:href="#path-1"></use>
                            </mask>
                            <g id="Clip-2"></g>
                            <path d="M21.5857876,17.7060611 C21.5857876,11.9908324 24.2970873,6.91062916 28.4994028,3.67379119 C25.5113992,1.37257059 21.7709204,0 17.7069569,0 C7.92676934,0 -9.95337629e-05,7.92786421 -9.95337629e-05,17.7060611 C-9.95337629e-05,27.4852533 7.92676934,35.4131175 17.7069569,35.4131175 C21.7709204,35.4131175 25.5113992,34.0405469 28.4994028,31.7393263 C24.2970873,28.501493 21.5857876,23.4212897 21.5857876,17.7060611" id="Fill-1" fill="#000000" mask="url(#mask-2)"></path>
                        </g>
                        <g id="Group-6" transform="translate(28.499502, 0.000000)">
                            <mask id="mask-4" fill="white">
                                <use xlink:href="#path-3"></use>
                            </mask>
                            <g id="Clip-5"></g>
                            <path d="M10.7934412,-9.95337629e-05 C6.72947771,-9.95337629e-05 2.98800356,1.37247106 0,3.67369165 C4.20331081,6.91052962 6.91461051,11.9907329 6.91461051,17.7059615 C6.91461051,23.4211902 4.20331081,28.5013935 0,31.7392268 C2.98800356,34.0404474 6.72947771,35.413018 10.7934412,35.413018 C20.5726335,35.413018 28.5004977,27.4851538 28.5004977,17.7059615 C28.5004977,7.92776468 20.5726335,-9.95337629e-05 10.7934412,-9.95337629e-05" id="Fill-4" fill="#1DCC64" mask="url(#mask-4)"></path>
                        </g>
                        <path d="M35.4136152,17.7060611 C35.4136152,11.9908324 32.7023155,6.91062916 28.5,3.67379119 C24.2966892,6.91062916 21.5853895,11.9908324 21.5853895,17.7060611 C21.5853895,23.4212897 24.2966892,28.501493 28.5,31.7393263 C32.7023155,28.501493 35.4136152,23.4212897 35.4136152,17.7060611" id="Fill-7" fill="#FFFFFF"></path>
                    </g>
                </g>
            </g>
        </g>
    </g>
</svg>